<?xml version="1.0" encoding="UTF-8"?>
<svg xmlns="http://www.w3.org/2000/svg" viewBox="0 0 1200 1080" role="img" aria-label="kirocc-pro architecture: request and response conversion pipelines with fork fix insertion points.">
  <title>kirocc-pro architecture</title>
  <desc>Processing pipeline from Claude Code through middleware, handler, request conversion, Kiro API, response conversion, and back. Eight fork fix markers indicate where the fork modifies the upstream behavior.</desc>

  <defs>
    <marker id="arrow-ink-l" viewBox="0 0 10 10" refX="9" refY="5" markerWidth="8" markerHeight="8" orient="auto-start-reverse">
      <path d="M0,0 L10,5 L0,10 z" fill="#2A2622"/>
    </marker>
    <marker id="arrow-muted-l" viewBox="0 0 10 10" refX="9" refY="5" markerWidth="7" markerHeight="7" orient="auto-start-reverse">
      <path d="M0,0 L10,5 L0,10 z" fill="#7A7167"/>
    </marker>
    <marker id="arrow-accent-l" viewBox="0 0 10 10" refX="9" refY="5" markerWidth="8" markerHeight="8" orient="auto-start-reverse">
      <path d="M0,0 L10,5 L0,10 z" fill="#C77B45"/>
    </marker>
  </defs>

  <style>
    .surface  { fill: #FAF8F5; }
    .panel    { fill: #FFFFFF; stroke: #D8D2CA; stroke-width: 1; }
    .panel-warm { fill: #FBF6F0; stroke: #D8C6B0; stroke-width: 1; }
    .panel-band { fill: #F4EFE8; stroke: #D8D2CA; stroke-width: 1; }
    .ink      { fill: #2A2622; }
    .muted    { fill: #7A7167; }
    .accent   { fill: #C77B45; }
    .accent-bg{ fill: #C77B45; }
    .rule     { stroke: #D8D2CA; }
    .arrow-ink   { stroke: #2A2622; fill: none; }
    .arrow-muted { stroke: #7A7167; fill: none; }
    .arrow-accent{ stroke: #C77B45; fill: none; }
    .h1 { font-family: ui-sans-serif, system-ui, sans-serif; font-weight: 700; font-size: 18px; letter-spacing: -0.005em; }
    .h2 { font-family: ui-sans-serif, system-ui, sans-serif; font-weight: 600; font-size: 14px; letter-spacing: 0.02em; }
    .body { font-family: ui-sans-serif, system-ui, sans-serif; font-weight: 400; font-size: 12px; }
    .mono { font-family: ui-monospace, "SF Mono", Menlo, monospace; font-weight: 400; font-size: 11px; }
    .eyebrow { font-family: ui-sans-serif, system-ui, sans-serif; font-weight: 600; font-size: 11px; letter-spacing: 0.14em; text-transform: uppercase; }
    .badge { font-family: ui-sans-serif, system-ui, sans-serif; font-weight: 700; font-size: 11px; }
  </style>

  <rect class="surface" width="1200" height="1080"/>

  <!-- Title -->
  <text class="eyebrow muted" x="60" y="40">ARCHITECTURE</text>
  <text class="h1 ink" x="60" y="68">Processing pipeline. Numbers ① to ⑧ mark fork fixes; see legend.</text>

  <!-- CLIENT -->
  <g transform="translate(440, 100)">
    <rect class="panel" width="320" height="64" rx="6"/>
    <text class="eyebrow muted" x="16" y="22">CLIENT</text>
    <text class="h2 ink" x="16" y="44">Claude Code · Anthropic SDK</text>
    <text class="mono muted" x="16" y="58">ANTHROPIC_BASE_URL → kirocc-pro</text>
  </g>

  <!-- Arrows from client down -->
  <path d="M 540 164 L 540 196" class="arrow-ink" stroke-width="1.4" marker-end="url(#arrow-ink-l)"/>
  <path d="M 660 196 L 660 164" class="arrow-muted" stroke-width="1.4" marker-end="url(#arrow-muted-l)" stroke-dasharray="4 4"/>
  <text class="mono muted" x="476" y="184">POST JSON</text>
  <text class="mono muted" x="676" y="184">SSE response</text>

  <!-- MIDDLEWARE band -->
  <g transform="translate(60, 200)">
    <rect class="panel-band" width="1080" height="60" rx="6"/>
    <text class="eyebrow muted" x="16" y="22">MIDDLEWARE</text>
    <g class="mono ink" font-size="12">
      <text x="160" y="40">[ OTel tracing ]</text>
      <text x="340" y="40">[ Trace ID ]</text>
      <text x="500" y="40">[ CORS ]</text>
      <text x="660" y="40">[ API Key Auth ]</text>
      <text x="860" y="40">[ Request/Response Logging ]</text>
    </g>
  </g>

  <!-- Arrow down from middleware to handler -->
  <path d="M 540 260 L 540 292" class="arrow-ink" stroke-width="1.4" marker-end="url(#arrow-ink-l)"/>

  <!-- HANDLER + AUTH side by side -->
  <g transform="translate(380, 296)">
    <rect class="panel" width="340" height="72" rx="6"/>
    <text class="eyebrow muted" x="16" y="22">HANDLER</text>
    <text class="h2 ink" x="16" y="44">Messages Handler</text>
    <text class="mono muted" x="16" y="60">resolveModel · resolveThinking · sessionID fallback (fork)</text>
  </g>

  <g transform="translate(760, 296)">
    <rect class="panel" width="320" height="72" rx="6"/>
    <text class="eyebrow muted" x="16" y="22">AUTH</text>
    <text class="h2 ink" x="16" y="44">SQLite + Token Refresh</text>
    <text class="mono muted" x="16" y="60">read creds · refresh on 403 · atomic write-back</text>
  </g>

  <!-- Arrow handler ↔ auth -->
  <path d="M 720 332 L 760 332" class="arrow-muted" stroke-width="1.2" stroke-dasharray="3 3"/>
  <path d="M 760 332 L 720 332" class="arrow-muted" stroke-width="1.2" stroke-dasharray="3 3"/>

  <!-- Arrow from handler down into req conv -->
  <path d="M 360 368 L 360 412" class="arrow-accent" stroke-width="1.6" marker-end="url(#arrow-accent-l)"/>
  <text class="eyebrow accent" x="120" y="408">REQUEST CONVERSION</text>
  <text class="mono muted" x="320" y="408">Anthropic JSON → Kiro payload</text>

  <!-- Arrow from resp conv up into handler -->
  <path d="M 840 412 L 840 368" class="arrow-ink" stroke-width="1.6" marker-end="url(#arrow-ink-l)"/>
  <text class="eyebrow muted" x="620" y="408">RESPONSE CONVERSION</text>
  <text class="mono muted" x="820" y="408">Anthropic SSE / JSON ←</text>

  <!-- Vertical column LEFT: REQ CONV (6 stages) -->
  <!-- Each stage: 480 wide, 52 tall, gap 12 -->
  <g transform="translate(60, 430)">
    <!-- 1: Model resolution -->
    <rect class="panel" width="480" height="52" rx="5"/>
    <text class="h2 ink" x="14" y="22">1. Model Resolution</text>
    <text class="mono muted" x="14" y="42">claude-sonnet-4-6 → claude-sonnet-4.6 · custom map</text>

    <!-- 2: Message normalization (FIX ①②) -->
    <g transform="translate(0, 64)">
      <rect class="panel-warm" width="480" height="52" rx="5"/>
      <text class="h2 ink" x="14" y="22">2. Message Normalization</text>
      <text class="mono muted" x="14" y="42">merge same-role · extract multi-block · MCP cleanup</text>
      <g transform="translate(420, 14)">
        <circle class="accent-bg" cx="12" cy="12" r="11"/>
        <text class="badge surface" x="12" y="16" text-anchor="middle">①</text>
        <circle class="accent-bg" cx="38" cy="12" r="11"/>
        <text class="badge surface" x="38" y="16" text-anchor="middle">②</text>
      </g>
    </g>

    <!-- 3: Tool & Schema -->
    <g transform="translate(0, 128)">
      <rect class="panel" width="480" height="52" rx="5"/>
      <text class="h2 ink" x="14" y="22">3. Tool &amp; Schema Conversion</text>
      <text class="mono muted" x="14" y="42">flatten anyOf/oneOf/allOf · strip unsupported keys</text>
    </g>

    <!-- 4: Tool Search partition -->
    <g transform="translate(0, 192)">
      <rect class="panel" width="480" height="52" rx="5"/>
      <text class="h2 ink" x="14" y="22">4. Tool Search Partition</text>
      <text class="mono muted" x="14" y="42">defer_loading tools → active / deferred · inject ToolSearch</text>
    </g>

    <!-- 5: Thinking injection (FIX ⑧) -->
    <g transform="translate(0, 256)">
      <rect class="panel-warm" width="480" height="52" rx="5"/>
      <text class="h2 ink" x="14" y="22">5. Thinking Injection</text>
      <text class="mono muted" x="14" y="42">&lt;thinking_mode&gt; · &lt;max_thinking_length&gt; · budget floor</text>
      <g transform="translate(446, 14)">
        <circle class="accent-bg" cx="12" cy="12" r="11"/>
        <text class="badge surface" x="12" y="16" text-anchor="middle">⑧</text>
      </g>
    </g>

    <!-- 6: Cache point -->
    <g transform="translate(0, 320)">
      <rect class="panel" width="480" height="52" rx="5"/>
      <text class="h2 ink" x="14" y="22">6. Cache Point Conversion</text>
      <text class="mono muted" x="14" y="42">tool-level cache_control → Kiro cachePoint</text>
    </g>
  </g>

  <!-- Down arrow from req conv to kiroclient -->
  <path d="M 300 802 L 300 838" class="arrow-accent" stroke-width="1.6" marker-end="url(#arrow-accent-l)"/>

  <!-- Vertical column RIGHT: RESP CONV (7 stages, bottom-up so reads upward) -->
  <g transform="translate(660, 430)">
    <!-- 7: AWS Event Stream Parser -->
    <rect class="panel" width="480" height="52" rx="5"/>
    <text class="h2 ink" x="14" y="22">7. AWS Event Stream Parser</text>
    <text class="mono muted" x="14" y="42">binary frames → typed events · cumulative text</text>

    <!-- 8: Accumulator + Tool Input Validator (FIX ③④) -->
    <g transform="translate(0, 64)">
      <rect class="panel-warm" width="480" height="52" rx="5"/>
      <text class="h2 ink" x="14" y="22">8. Accumulator + Tool Input Validator</text>
      <text class="mono muted" x="14" y="42">cumulative → delta · required-field &amp; type checks</text>
      <g transform="translate(420, 14)">
        <circle class="accent-bg" cx="12" cy="12" r="11"/>
        <text class="badge surface" x="12" y="16" text-anchor="middle">③</text>
        <circle class="accent-bg" cx="38" cy="12" r="11"/>
        <text class="badge surface" x="38" y="16" text-anchor="middle">④</text>
      </g>
    </g>

    <!-- 9: Thinking parser -->
    <g transform="translate(0, 128)">
      <rect class="panel" width="480" height="52" rx="5"/>
      <text class="h2 ink" x="14" y="22">9. Thinking Tag Parser</text>
      <text class="mono muted" x="14" y="42">&lt;thinking&gt; tags · reasoningContentEvent · dedup</text>
    </g>

    <!-- 10: Tool Search inner loop (FIX ⑦) -->
    <g transform="translate(0, 192)">
      <rect class="panel-warm" width="480" height="52" rx="5"/>
      <text class="h2 ink" x="14" y="22">10. Tool Search Inner Loop</text>
      <text class="mono muted" x="14" y="42">execute regex/BM25 · 3 rounds · graceful error</text>
      <g transform="translate(446, 14)">
        <circle class="accent-bg" cx="12" cy="12" r="11"/>
        <text class="badge surface" x="12" y="16" text-anchor="middle">⑦</text>
      </g>
    </g>

    <!-- 11: Invalid tool retry / fallback (FIX ⑤⑥) -->
    <g transform="translate(0, 256)">
      <rect class="panel-warm" width="480" height="52" rx="5"/>
      <text class="h2 ink" x="14" y="22">11. Invalid Tool Retry &amp; Fallback</text>
      <text class="mono muted" x="14" y="42">reflow as tool_result(is_error) · bounded retry · visible-error fallback</text>
      <g transform="translate(420, 14)">
        <circle class="accent-bg" cx="12" cy="12" r="11"/>
        <text class="badge surface" x="12" y="16" text-anchor="middle">⑤</text>
        <circle class="accent-bg" cx="38" cy="12" r="11"/>
        <text class="badge surface" x="38" y="16" text-anchor="middle">⑥</text>
      </g>
    </g>

    <!-- 12: Adapter-side enforcement -->
    <g transform="translate(0, 320)">
      <rect class="panel" width="480" height="52" rx="5"/>
      <text class="h2 ink" x="14" y="22">12. stop_sequences / max_tokens / Truncation</text>
      <text class="mono muted" x="14" y="42">adapter-side enforcement · truncation notice injection</text>
    </g>

    <!-- 13: Gate Writer -->
    <g transform="translate(0, 384)">
      <rect class="panel" width="480" height="52" rx="5"/>
      <text class="h2 ink" x="14" y="22">13. Gate Writer (buffered)</text>
      <text class="mono muted" x="14" y="42">withhold output until visible content · transparent retry</text>
    </g>
  </g>

  <!-- Down arrow from gate writer to kiroclient (response direction) -->
  <path d="M 900 838 L 900 870" class="arrow-muted" stroke-width="1.6" marker-end="url(#arrow-muted-l)" stroke-dasharray="3 3"/>

  <!-- KIROCLIENT box -->
  <g transform="translate(440, 838)">
    <rect class="panel-warm" width="320" height="72" rx="6"/>
    <text class="eyebrow muted" x="16" y="22">UPSTREAM</text>
    <text class="h2 ink" x="16" y="44">Kiro API</text>
    <text class="mono muted" x="16" y="60">q.{region}.amazonaws.com · 403/429/5xx retry</text>
  </g>

  <!-- Arrow from reqconv-bottom to kiroclient -->
  <path d="M 300 802 L 300 870 L 436 870" class="arrow-accent" stroke-width="1.6" fill="none" marker-end="url(#arrow-accent-l)"/>
  <!-- Arrow from kiroclient up into respconv (right column) -->
  <path d="M 764 870 L 900 870 L 900 484" class="arrow-ink" stroke-width="1.6" fill="none" marker-end="url(#arrow-ink-l)"/>

  <!-- LEGEND -->
  <g transform="translate(60, 950)">
    <line class="rule" x1="0" y1="-6" x2="1080" y2="-6" stroke-width="1"/>
    <text class="eyebrow muted" x="0" y="14">FORK FIX INDEX</text>
    <g class="mono ink" font-size="11">
      <text x="0"   y="42">① MCP cleanup</text>
      <text x="160" y="42">② Preserve non-MCP reminders</text>
      <text x="380" y="42">③ tool_use required check</text>
      <text x="580" y="42">④ tool_use type check</text>
      <text x="760" y="42">⑤ Invalid tool retry</text>
      <text x="940" y="42">⑥ Visible error fallback</text>
      <text x="0"   y="66">⑦ ToolSearch graceful error</text>
      <text x="240" y="66">⑧ FORCE_THINKING_BUDGET floor</text>
    </g>
  </g>
</svg>
